# xmcd CD database file
#
# Track frame offsets:
#	150
#	24430
#	49451
#	74827
#	99177
#	124704
#	138966
#	163952
#	184396
#	207651
#
# Disc length: 3030 seconds
#
# Revision: 0
# Processed by: cddbd v1.5.2PL0 Copyright (c) Steve Scherf et al.
# Submitted via: jetAudio 7
#
DISCID=9b0bd40a
DTITLE=印音樂(文賓)  - 還原
DYEAR=1900
DGENRE=장르 없음
TTITLE0=彩色夢
TTITLE1=哨
TTITLE2=基葉姑娘
TTITLE3=口弦
TTITLE4=酒歌
TTITLE5=小老漢
TTITLE6=火塘邊的PARTY
TTITLE7=羅比女人
TTITLE8=大山里
TTITLE9=依呀來噢
EXTD=
EXTT0=
EXTT1=
EXTT2=
EXTT3=
EXTT4=
EXTT5=
EXTT6=
EXTT7=
EXTT8=
EXTT9=
PLAYORDER=
